<svg xmlns="http://www.w3.org/2000/svg" viewBox="0 0 1394.62 478.97"><defs><style>.cls-1{fill:#344049;}.cls-2{fill:#3bb34a;}</style></defs><g id="Layer_6" data-name="Layer 6"><path class="cls-1" d="M432.31,244.55a28.85,28.85,0,0,1-10.54,5.32,47.23,47.23,0,0,1-13.11,1.78q-17.34,0-26.79-9.07t-9.46-26.4V121.79H397v24h28.18v19.71H397v50.05q0,7.68,3.84,11.72t10.74,4q8.28,0,13.79-4.33Z"/><path class="cls-1" d="M523.74,219.33l13,15.17A42.92,42.92,0,0,1,519,247.31a65.33,65.33,0,0,1-24.43,4.34q-17.34,0-30.54-6.9a49.68,49.68,0,0,1-20.4-19.21,54.19,54.19,0,0,1-7.19-27.88,55.1,55.1,0,0,1,7-27.69,49.86,49.86,0,0,1,19.31-19.21,56.08,56.08,0,0,1,27.89-6.9,56.64,56.64,0,0,1,26.89,6.41,48.15,48.15,0,0,1,19.21,18.32q7.1,11.92,7.1,27.88l-80.59,15.77a27.45,27.45,0,0,0,12,13.79q8.26,4.72,19.9,4.73Q512.32,230.76,523.74,219.33Zm-55.07-46.9q-8.39,8.88-8.38,23.85v.19l59.51-11.42a28,28,0,0,0-10.35-15.57q-7.79-5.91-18.81-5.91Q477,163.57,468.67,172.43Z"/><path class="cls-1" d="M624.43,143.86v23.45a31.74,31.74,0,0,0-5.72-.59q-14.38,0-22.46,8.37t-8.08,24.14v51H563.54V145.05H587v15.36Q597.63,143.87,624.43,143.86Z"/><path class="cls-1" d="M702.26,143.86v23.45a31.63,31.63,0,0,0-5.71-.59q-14.38,0-22.47,8.37T666,199.23v51H641.37V145.05h23.45v15.36Q675.47,143.87,702.26,143.86Z"/><path class="cls-1" d="M821.08,145.05V250.27H797.63v-13.6a38.09,38.09,0,0,1-15.07,11.23,50.86,50.86,0,0,1-19.81,3.75,55.91,55.91,0,0,1-27.48-6.7A47.64,47.64,0,0,1,716.35,226q-6.79-12.21-6.8-28.37t6.8-28.28a47.84,47.84,0,0,1,18.92-18.82,55.91,55.91,0,0,1,27.48-6.7,48.83,48.83,0,0,1,18.82,3.55,41.41,41.41,0,0,1,14.88,10.44v-12.8ZM788,221.5q8.87-9.06,8.86-23.84T788,173.81q-8.88-9.06-22.47-9.06t-22.36,9.06q-8.77,9.08-8.77,23.85t8.77,23.84q8.76,9.06,22.36,9.06T788,221.5Z"/><path class="cls-1" d="M856.94,248.3q-12.23-3.36-19.51-8.48l9.46-18.72a60.5,60.5,0,0,0,17,7.59,70.67,70.67,0,0,0,19.61,2.86q22.07,0,22.07-11.63c0-3.67-1.87-6.24-5.62-7.68s-9.75-2.83-18-4.14a145.43,145.43,0,0,1-21.18-4.53,32.57,32.57,0,0,1-14.19-9q-6-6.4-6-17.83,0-15,12.52-23.94t33.79-9a97.77,97.77,0,0,1,21.68,2.47,60.72,60.72,0,0,1,17.73,6.6l-9.46,18.72a58.28,58.28,0,0,0-30.15-7.89q-10.83,0-16.45,3.26t-5.62,8.57q0,5.91,6,8.37t18.62,4.63a145.38,145.38,0,0,1,20.69,4.53,32.46,32.46,0,0,1,13.9,8.67q5.8,6.12,5.81,17.34,0,14.79-12.81,23.65T882,251.65A94.27,94.27,0,0,1,856.94,248.3Z"/><path class="cls-1" d="M965.9,244.75a50.63,50.63,0,0,1-20.29-19.21,56.79,56.79,0,0,1,0-55.67,51,51,0,0,1,20.2-19.11q12.9-6.9,29.45-6.9,15.57,0,27.29,6.31a40.84,40.84,0,0,1,17.64,18.13l-18.92,11a30,30,0,0,0-11.33-10.93,31,31,0,0,0-14.87-3.65q-13.8,0-22.86,9t-9.06,23.94q0,15,9,23.94t23,9a31,31,0,0,0,14.87-3.64A30,30,0,0,0,1021.27,216l18.92,11a42.6,42.6,0,0,1-17.83,18.22q-11.73,6.4-27.1,6.41A61.67,61.67,0,0,1,965.9,244.75Z"/><path class="cls-1" d="M1158.81,145.05V250.27h-23.45v-13.6a38.09,38.09,0,0,1-15.07,11.23,50.84,50.84,0,0,1-19.8,3.75A55.92,55.92,0,0,1,1073,245,47.64,47.64,0,0,1,1054.08,226q-6.8-12.21-6.8-28.37t6.8-28.28A47.84,47.84,0,0,1,1073,150.56a55.92,55.92,0,0,1,27.49-6.7,48.82,48.82,0,0,1,18.81,3.55,41.41,41.41,0,0,1,14.88,10.44v-12.8Zm-33.1,76.45q8.86-9.06,8.86-23.84t-8.86-23.85q-8.87-9.06-22.47-9.06t-22.36,9.06q-8.78,9.08-8.77,23.85t8.77,23.84q8.76,9.06,22.36,9.06T1125.71,221.5Z"/><path class="cls-1" d="M1278.81,155.49q12,11.63,12,34.48v60.3H1266.2V193.12q0-13.78-6.51-20.78t-18.52-7q-13.59,0-21.48,8.18t-7.88,23.54v53.21h-24.63V145.05h23.45v13.59a38.39,38.39,0,0,1,15.37-11,55.2,55.2,0,0,1,20.89-3.75Q1266.78,143.86,1278.81,155.49Z"/><path class="cls-2" d="M262.77,276.72a8.13,8.13,0,0,1-6.23-13.36A91.53,91.53,0,0,0,117.31,144.53,8.13,8.13,0,1,1,105,133.87a107.79,107.79,0,0,1,164,140A8.1,8.1,0,0,1,262.77,276.72Z"/><path class="cls-2" d="M164.56,254.46a8.07,8.07,0,0,1-3.76-.93,55.33,55.33,0,1,1,52.38-97.47,8.14,8.14,0,0,1-7.86,14.25,39.06,39.06,0,1,0-37,68.81,8.13,8.13,0,0,1-3.78,15.34Z"/><path class="cls-1" d="M113.58,226a8.14,8.14,0,0,1-8-6.67,82.2,82.2,0,1,1,161.72-29.53,8.13,8.13,0,1,1-16,2.92,65.93,65.93,0,1,0-129.72,23.69,8.12,8.12,0,0,1-8,9.59Z"/><circle class="cls-1" cx="185.85" cy="201.82" r="19.31"/><path class="cls-1" d="M977.87,308.64V355H967.53v-6a16.81,16.81,0,0,1-6.65,4.95,22.45,22.45,0,0,1-8.73,1.65A24.61,24.61,0,0,1,940,352.69a21,21,0,0,1-8.34-8.34,27.5,27.5,0,0,1,0-25,21.14,21.14,0,0,1,8.34-8.3,24.61,24.61,0,0,1,12.12-2.95,21.56,21.56,0,0,1,8.3,1.56,18.36,18.36,0,0,1,6.56,4.61v-5.65Zm-14.6,33.71a16.09,16.09,0,0,0,0-21,13.29,13.29,0,0,0-9.9-4,13.12,13.12,0,0,0-9.86,4,16.22,16.22,0,0,0,0,21,13.13,13.13,0,0,0,9.86,4A13.29,13.29,0,0,0,963.27,342.35Z"/><path class="cls-1" d="M997,352.6a22.35,22.35,0,0,1-9-8.47,23.7,23.7,0,0,1-3.21-12.29A23.45,23.45,0,0,1,988,319.59a22.48,22.48,0,0,1,8.91-8.43,27.07,27.07,0,0,1,13-3,25.09,25.09,0,0,1,12,2.78,18.07,18.07,0,0,1,7.77,8l-8.34,4.87a13.21,13.21,0,0,0-5-4.82,13.59,13.59,0,0,0-6.56-1.61,13.75,13.75,0,0,0-10.08,3.95q-4,4-4,10.56t4,10.55a14.63,14.63,0,0,0,16.68,2.35,13.28,13.28,0,0,0,5-4.82l8.34,4.86a18.71,18.71,0,0,1-7.86,8,24.57,24.57,0,0,1-12,2.82A27.16,27.16,0,0,1,997,352.6Z"/><path class="cls-1" d="M1046.76,352.6a22.35,22.35,0,0,1-9-8.47,23.7,23.7,0,0,1-3.21-12.29,23.45,23.45,0,0,1,3.21-12.25,22.48,22.48,0,0,1,8.91-8.43,27.08,27.08,0,0,1,13-3,25.08,25.08,0,0,1,12,2.78,18,18,0,0,1,7.77,8l-8.34,4.87a13.14,13.14,0,0,0-5-4.82,13.59,13.59,0,0,0-6.56-1.61,13.75,13.75,0,0,0-10.08,3.95q-4,4-4,10.56t4,10.55a14.63,14.63,0,0,0,16.68,2.35,13.21,13.21,0,0,0,5-4.82l8.34,4.86a18.71,18.71,0,0,1-7.86,8,24.56,24.56,0,0,1-11.94,2.82A27.17,27.17,0,0,1,1046.76,352.6Z"/><path class="cls-1" d="M1133.81,308.64V355h-10.34v-5.9A17.31,17.31,0,0,1,1117,354a21,21,0,0,1-8.43,1.69q-9.3,0-14.64-5.17t-5.34-15.33v-26.5h10.86v25q0,6.25,2.82,9.34t8,3.09a12.18,12.18,0,0,0,9.25-3.61q3.43-3.6,3.43-10.38V308.64Z"/><path class="cls-1" d="M1171.43,308.12v10.34a13.31,13.31,0,0,0-2.52-.26q-6.35,0-9.9,3.69t-3.56,10.64V355h-10.86V308.64h10.33v6.78Q1159.61,308.12,1171.43,308.12Z"/><path class="cls-1" d="M1181.16,299.13a6.41,6.41,0,0,1,0-9.3,7,7,0,0,1,4.95-1.87,7.24,7.24,0,0,1,5,1.78,5.75,5.75,0,0,1,2,4.48,6.55,6.55,0,0,1-2,4.82,6.77,6.77,0,0,1-5,1.95A7,7,0,0,1,1181.16,299.13Zm-.52,9.51h10.86V355h-10.86Z"/><path class="cls-1" d="M1214.09,352.6a22.35,22.35,0,0,1-8.95-8.47,23.7,23.7,0,0,1-3.21-12.29,23.45,23.45,0,0,1,3.21-12.25,22.48,22.48,0,0,1,8.91-8.43,27.07,27.07,0,0,1,13-3,25.09,25.09,0,0,1,12,2.78,18.07,18.07,0,0,1,7.77,8l-8.34,4.87a13.21,13.21,0,0,0-5-4.82,13.59,13.59,0,0,0-6.56-1.61,13.75,13.75,0,0,0-10.08,3.95q-4,4-4,10.56t4,10.55a14.63,14.63,0,0,0,16.68,2.35,13.28,13.28,0,0,0,5-4.82l8.34,4.86a18.77,18.77,0,0,1-7.86,8,24.57,24.57,0,0,1-12,2.82A27.16,27.16,0,0,1,1214.09,352.6Z"/><path class="cls-1" d="M1259.53,354.16a27.6,27.6,0,0,1-8.61-3.73l4.17-8.25a26.85,26.85,0,0,0,7.52,3.34,31.2,31.2,0,0,0,8.64,1.26q9.74,0,9.73-5.13a3.41,3.41,0,0,0-2.47-3.38,42.46,42.46,0,0,0-8-1.83,63.62,63.62,0,0,1-9.34-2,14.38,14.38,0,0,1-6.26-3.95c-1.76-1.88-2.65-4.5-2.65-7.86a12.37,12.37,0,0,1,5.52-10.56q5.52-3.94,14.9-3.95a43.26,43.26,0,0,1,9.56,1.08,27,27,0,0,1,7.82,2.92l-4.17,8.25a25.71,25.71,0,0,0-13.3-3.48q-4.77,0-7.25,1.44a4.27,4.27,0,0,0-2.48,3.78,3.78,3.78,0,0,0,2.65,3.69,42.85,42.85,0,0,0,8.21,2,64,64,0,0,1,9.13,2,14.32,14.32,0,0,1,6.12,3.82q2.57,2.7,2.56,7.65a12.09,12.09,0,0,1-5.64,10.42q-5.65,3.91-15.38,3.91A41.26,41.26,0,0,1,1259.53,354.16Z"/><path class="cls-1" d="M847.54,312.3a20.08,20.08,0,0,1,7.88,7.92,25.24,25.24,0,0,1,0,23.3,20.44,20.44,0,0,1-7.88,8,22.35,22.35,0,0,1-11.23,2.85,20.8,20.8,0,0,1-9.93-2.35,18.16,18.16,0,0,1-7.08-6.79v8.72h-5.7V291.73h5.95v26.48a18.37,18.37,0,0,1,7.08-6.5,20.88,20.88,0,0,1,9.68-2.22A22.64,22.64,0,0,1,847.54,312.3Zm-3.27,34.61a15,15,0,0,0,5.91-6.08,19.85,19.85,0,0,0,0-17.93,15,15,0,0,0-5.91-6.07,17.56,17.56,0,0,0-16.8,0,15.1,15.1,0,0,0-5.86,6.07,19.85,19.85,0,0,0,0,17.93,15.13,15.13,0,0,0,5.86,6.08,17.56,17.56,0,0,0,16.8,0Z"/><path class="cls-1" d="M906.2,309.83l-22,49.36q-2.68,6.19-6.2,8.79a13.81,13.81,0,0,1-8.46,2.6,17.24,17.24,0,0,1-6-1,12.86,12.86,0,0,1-4.78-3l2.76-4.44a11,11,0,0,0,8.05,3.35,8.07,8.07,0,0,0,5.15-1.68,15.07,15.07,0,0,0,4-5.69l1.93-4.28-19.69-44h6.2l16.59,37.46,16.59-37.46Z"/></g></svg>